<svg data-v-423bf9ae="" xmlns="http://www.w3.org/2000/svg" viewBox="0 0 407 90" class="iconLeft"><!----><defs data-v-423bf9ae=""><linearGradient data-v-423bf9ae="" gradientTransform="rotate(25)" id="aab0e952-cf71-4ebc-b9e8-11bbfd610d57" x1="0%" y1="0%" x2="100%" y2="0%"><stop data-v-423bf9ae="" offset="0%" style="stop-color: rgb(81, 164, 251); stop-opacity: 1;"></stop><stop data-v-423bf9ae="" offset="100%" style="stop-color: rgb(81, 164, 251); stop-opacity: 1;"></stop></linearGradient></defs><!----><g data-v-423bf9ae="" id="e18f9988-6c2a-44e2-90c1-df17b8b06fc7" fill="#ffffff" transform="matrix(3.7712133357605775,0,0,3.7712133357605775,106.37963533844527,11.643618396981381)"><path d="M9.85 5.46C8.80 5.46 8.02 5.93 7.58 6.76C7.23 5.99 6.53 5.46 5.57 5.46C4.71 5.46 4.03 5.88 3.55 6.53L3.55 5.60L0.96 5.60L0.96 12.60L3.55 12.60L3.55 8.66C3.55 8.28 3.76 7.72 4.39 7.72C4.95 7.72 5.27 8.16 5.27 8.66L5.27 12.60L7.88 12.60L7.88 8.66C7.88 8.28 8.07 7.72 8.70 7.72C9.26 7.72 9.59 8.16 9.59 8.66L9.59 12.60L12.18 12.60L12.18 8.17C12.18 6.51 11.41 5.46 9.85 5.46ZM18.66 5.60L17.08 9.87L15.49 5.60L12.81 5.60L15.75 12.78L14.11 16.80L16.84 16.80L17.94 13.97L21.30 5.60ZM28.82 7.26C29.56 6.86 30.01 6.16 30.01 5.06C30.01 3.15 28.58 2.10 26.78 2.10L22.12 2.10L22.12 12.60L27.18 12.60C28.96 12.60 30.36 11.62 30.36 9.70C30.36 8.44 29.75 7.67 28.82 7.26ZM27.34 5.36C27.34 5.83 26.93 6.28 26.44 6.28L24.80 6.28L24.80 4.43L26.44 4.43C26.93 4.43 27.34 4.87 27.34 5.36ZM26.78 10.27L24.80 10.27L24.80 8.42L26.78 8.42C27.30 8.42 27.69 8.87 27.69 9.35C27.69 9.84 27.30 10.27 26.78 10.27ZM35.23 12.74C37.68 12.74 39.20 11.22 39.20 9.10C39.20 6.98 37.68 5.46 35.23 5.46C32.76 5.46 31.24 6.98 31.24 9.10C31.24 11.22 32.76 12.74 35.23 12.74ZM35.23 10.48C34.41 10.47 33.83 9.91 33.83 9.10C33.83 8.30 34.41 7.74 35.23 7.72C36.03 7.74 36.61 8.30 36.61 9.10C36.61 9.91 36.03 10.47 35.23 10.48ZM44.14 12.74C46.59 12.74 48.11 11.22 48.11 9.10C48.11 6.98 46.59 5.46 44.14 5.46C41.67 5.46 40.15 6.98 40.15 9.10C40.15 11.22 41.67 12.74 44.14 12.74ZM44.14 10.48C43.31 10.47 42.74 9.91 42.74 9.10C42.74 8.30 43.31 7.74 44.14 7.72C44.94 7.74 45.52 8.30 45.52 9.10C45.52 9.91 44.94 10.47 44.14 10.48ZM57.72 12.60L54.48 8.79L57.49 5.60L54.43 5.60L52.24 7.91L52.24 0.89L49.65 0.89L49.65 12.60L52.24 12.60L52.24 9.68L54.39 12.60ZM59.64 4.46C60.39 4.46 61.02 3.83 61.02 3.08C61.02 2.33 60.39 1.71 59.64 1.71C58.89 1.71 58.26 2.33 58.26 3.08C58.26 3.83 58.89 4.46 59.64 4.46ZM58.35 12.60L60.94 12.60L60.94 5.60L58.35 5.60ZM67.59 5.46C66.73 5.46 65.98 5.90 65.47 6.60L65.47 5.60L62.88 5.60L62.88 12.60L65.47 12.60L65.47 8.68C65.47 8.12 65.94 7.72 66.52 7.72C67.10 7.72 67.48 8.12 67.48 8.68L67.48 12.60L70.07 12.60L70.07 8.17C70.07 6.62 68.99 5.46 67.59 5.46ZM79.43 5.60L76.83 5.60L76.83 6.27C76.27 5.76 75.55 5.46 74.73 5.46C72.82 5.46 71.33 7.05 71.33 9.10C71.33 11.15 72.82 12.74 74.73 12.74C75.56 12.74 76.30 12.43 76.86 11.92L76.86 12.64C76.86 13.91 76.28 14.60 75.23 14.60C74.53 14.60 74.03 14.28 73.78 13.69L71.38 14.61C72.00 16.05 73.31 16.80 75.23 16.80C77.96 16.80 79.45 15.28 79.45 12.50ZM75.50 10.48C74.71 10.48 74.09 9.89 74.09 9.10C74.09 8.31 74.71 7.72 75.50 7.72C76.27 7.72 76.88 8.31 76.88 9.10C76.88 9.89 76.27 10.48 75.50 10.48Z"></path></g><!----><g data-v-423bf9ae="" id="6bbc99b1-7cfe-4181-a93a-251e2ce1abcd" transform="matrix(2.8125,0,0,2.8125,0,0)" stroke="none" fill="#ffffff"><path d="M9.382 8.675h13.943v13.943L32 31.293V0H.707zM22.618 23.325H8.675V9.382L0 .707V32h31.293z"></path></g><!----></svg>